<?xml version="1.0" encoding="UTF-8" standalone="no"?>
<svg width="69px" height="20px" viewBox="0 0 69 20" version="1.1" xmlns="http://www.w3.org/2000/svg" xmlns:xlink="http://www.w3.org/1999/xlink">
    <!-- Generator: Sketch 41 (35326) - http://www.bohemiancoding.com/sketch -->
    <title>logo/picter/black</title>
    <desc>Created with Sketch.</desc>
    <defs></defs>
    <g id="Symbols" stroke="none" stroke-width="1" fill="none" fill-rule="evenodd">
        <g id="logo/picter/black" fill="#1D1D1B">
            <g id="picter-logo-black">
                <path d="M3.1,3.6 L3.1,5.4 L3.2,5.4 C3.4,5.2 3.6,5 3.9,4.7 C4.2,4.4 4.5,4.2 4.9,4 C5.3,3.8 5.7,3.6 6.2,3.5 C6.7,3.4 7.2,3.3 7.8,3.3 C8.7,3.3 9.6,3.5 10.4,3.8 C11.2,4.2 11.9,4.6 12.4,5.3 C13,5.9 13.4,6.6 13.7,7.5 C14,8.3 14.2,9.2 14.2,10.2 C14.2,11.2 14,12.1 13.7,12.9 C13.4,13.7 13,14.5 12.4,15.1 C11.8,15.7 11.2,16.2 10.4,16.6 C9.6,17 8.7,17.2 7.7,17.2 C6.8,17.2 5.9,17 5.1,16.6 C4.3,16.2 3.7,15.7 3.3,15 L3.3,15 L3.3,20 L0,20 L0,3.6 L3.1,3.6 Z M10.8,10.1 C10.8,9.6 10.7,9.1 10.6,8.6 C10.4,8.1 10.2,7.6 9.9,7.2 C9.6,6.8 9.2,6.5 8.7,6.2 C8.2,6.1 7.7,5.9 7,5.9 C6.4,5.9 5.9,6 5.4,6.3 C4.9,6.6 4.5,6.9 4.2,7.3 C3.9,7.7 3.6,8.2 3.4,8.7 C3.2,9.2 3.1,9.7 3.1,10.2 C3.1,10.7 3.2,11.2 3.4,11.7 C3.6,12.2 3.8,12.7 4.2,13.1 C4.5,13.5 4.9,13.8 5.4,14.1 C5.9,14.3 6.4,14.5 7,14.5 C7.6,14.5 8.2,14.4 8.7,14.1 C9.2,13.8 9.6,13.5 9.9,13.1 C10.2,12.7 10.4,12.2 10.6,11.7 C10.7,11.2 10.8,10.7 10.8,10.1 Z" id="Shape"></path>
                <rect id="Rectangle-path" x="16.5" y="3.6" width="3.3" height="13.1"></rect>
                <path d="M32.1,7.3 C31.8,6.9 31.5,6.6 31,6.4 C30.5,6.2 30,6 29.4,6 C28.8,6 28.3,6.1 27.8,6.4 C27.3,6.6 27,7 26.7,7.4 C26.4,7.8 26.1,8.2 26,8.7 C25.9,9.2 25.8,9.7 25.8,10.2 C25.8,10.7 25.9,11.2 26,11.7 C26.1,12.2 26.4,12.7 26.7,13.1 C27,13.5 27.4,13.8 27.9,14.1 C28.4,14.3 28.9,14.5 29.5,14.5 C30,14.5 30.5,14.4 31,14.2 C31.5,14 31.9,13.7 32.2,13.3 L34.3,15.4 C33.8,16 33.1,16.4 32.2,16.8 C31.4,17.1 30.4,17.3 29.5,17.3 C28.5,17.3 27.6,17.1 26.8,16.8 C25.9,16.5 25.2,16 24.5,15.4 C23.9,14.8 23.3,14.1 23,13.2 C22.6,12.3 22.4,11.4 22.4,10.3 C22.4,9.2 22.6,8.3 23,7.4 C23.4,6.5 23.9,5.8 24.5,5.2 C25.1,4.6 25.9,4.1 26.7,3.8 C27.5,3.5 28.5,3.3 29.4,3.3 C30.4,3.3 31.3,3.5 32.2,3.8 C33.1,4.2 33.8,4.7 34.3,5.3 L32.1,7.3 Z" id="Shape"></path>
                <path d="M58.6,10.4 L58.6,10.8 L58.6,11.2 L48.6,11.2 C48.6,11.7 48.8,12.1 49,12.5 C49.2,12.9 49.5,13.2 49.8,13.5 C50.1,13.8 50.5,14 51,14.2 C51.4,14.4 51.9,14.4 52.4,14.4 C53.2,14.4 53.9,14.2 54.5,13.9 C55.1,13.6 55.5,13.2 55.9,12.7 L58.1,14.4 C56.8,16.2 54.9,17 52.5,17 C51.5,17 50.5,16.8 49.7,16.5 C48.8,16.2 48.1,15.7 47.5,15.1 C46.9,14.5 46.4,13.8 46,13 C45.6,12.2 45.5,11.2 45.5,10.1 C45.5,9 45.7,8.1 46,7.2 C46.4,6.3 46.8,5.6 47.5,5 C48.1,4.4 48.9,3.9 49.7,3.6 C50.5,3.3 51.5,3.1 52.4,3.1 C53.3,3.1 54.2,3.2 54.9,3.5 C55.7,3.8 56.3,4.2 56.9,4.8 C57.5,5.4 57.9,6.1 58.2,7 C58.4,8.1 58.6,9.2 58.6,10.4 Z M55.3,8.9 C55.3,8.5 55.2,8.1 55.1,7.7 C55,7.3 54.8,7 54.5,6.7 C54.2,6.4 53.9,6.2 53.5,6 C53.1,5.8 52.6,5.7 52.1,5.7 C51.1,5.7 50.3,6 49.6,6.6 C48.9,7.2 48.6,8 48.5,8.9 L55.3,8.9 Z" id="Shape"></path>
                <path d="M61.2,3.6 L64.3,3.6 L64.3,5.8 L64.4,5.8 C64.8,5 65.3,4.4 65.9,3.9 C66.6,3.4 67.3,3.2 68.2,3.2 L68.6,3.2 C68.7,3.2 68.9,3.2 69,3.3 L69,6.3 C68.8,6.2 68.6,6.2 68.4,6.2 L67.9,6.2 C67.2,6.2 66.6,6.3 66.1,6.6 C65.6,6.9 65.3,7.2 65,7.6 C64.7,8 64.6,8.4 64.5,8.8 C64.4,9.2 64.4,9.5 64.4,9.8 L64.4,16.8 L61.1,16.8 L61.1,3.6 L61.2,3.6 Z" id="Shape"></path>
                <path d="M44.1,6.3 L44.1,3.6 L39.3,3.6 L39.3,0 L36,0 L36,3.6 L36,12.4 C36,13 36.1,13.6 36.2,14.2 C36.3,14.8 36.5,15.2 36.9,15.7 C37.2,16.1 37.7,16.5 38.2,16.7 C38.7,16.9 39.5,17.1 40.3,17.1 C40.7,17.1 41.2,17 41.6,17 C42,16.9 42.6,16.7 43.1,16.5 C43.5,16.3 43.9,16.1 44.1,16 L44.1,13.5 C43.8,13.6 43.2,13.9 42.7,14.1 C42.3,14.2 42,14.4 41.7,14.4 C41.4,14.5 41.2,14.5 41,14.5 C40.3,14.5 39.8,14.3 39.6,13.9 C39.4,13.5 39.3,13 39.3,12.5 L39.3,6.3 L44.1,6.3 Z" id="Shape"></path>
            </g>
        </g>
    </g>
</svg>