<?xml version="1.0" standalone="yes"?>

<svg version="1.1" viewBox="0.0 0.0 649.9763779527559 472.5800524934383" fill="none" stroke="none" stroke-linecap="square" stroke-miterlimit="10" xmlns="http://www.w3.org/2000/svg" xmlns:xlink="http://www.w3.org/1999/xlink"><clipPath id="p.0"><path d="m0 0l649.9764 0l0 472.58005l-649.9764 0l0 -472.58005z" clip-rule="nonzero"></path></clipPath><g clip-path="url(#p.0)"><path fill="#000000" fill-opacity="0.0" d="m0 0l649.9764 0l0 472.58005l-649.9764 0z" fill-rule="nonzero"></path><path fill="#b7b7b7" d="m407.40027 156.77428l0 0c0 -61.45581 49.819763 -111.27559 111.27557 -111.27559l0 0c29.512146 0 57.81549 11.723644 78.683716 32.591866c20.868225 20.868225 32.591858 49.1716 32.591858 78.68372l0 0c0 61.45581 -49.819763 111.27559 -111.27557 111.27559l0 0c-61.45581 0 -111.27557 -49.81978 -111.27557 -111.27559z" fill-rule="nonzero"></path><path fill="#000000" d="m485.88977 173.85428l0 -32.640625l17.859375 0q0.09375 0.71875 0.1875 1.4375q0.09375 0.71875 0.25 1.4375l-14.5 0l0 11.671875l9.40625 0q0.09375 0.71875 0.1875 1.4375q0.09375 0.71875 0.25 1.4375l-9.84375 0l0 12.25l15.453125 0l0.4375 2.96875l-19.6875 0zm24.917816 -4.5625q1.2968445 0.625 3.4687195 1.296875q2.1875 0.671875 4.546875 0.671875q3.78125 0 5.796875 -1.453125q2.03125 -1.46875 2.03125 -3.828125q0 -5.1875 -8.640625 -7.53125q-8.6405945 -2.359375 -8.6405945 -9.75q0 -3.453125 2.7812195 -5.84375q2.78125 -2.40625 7.625 -2.40625q2.453125 0 4.625 0.625q2.1875 0.625 3.734375 1.390625q-0.296875 0.765625 -0.640625 1.484375q-0.328125 0.71875 -0.65625 1.484375q-1.25 -0.625 -2.84375 -1.140625q-1.578125 -0.53125 -3.96875 -0.53125q-3.03125 0 -5.0 1.25q-1.96875 1.25 -1.96875 3.59375q0 5.328125 8.65625 7.734375q8.671875 2.390625 8.671875 9.546875q0 3.75 -3.0 6.171875q-3.0 2.421875 -8.515625 2.421875q-2.0625 0 -5.0625 -0.71875q-2.9999695 -0.71875 -3.9218445 -1.484375q0.203125 -0.71875 0.4375 -1.46875q0.234375 -0.75 0.484375 -1.515625zm24.761566 6.71875l14.640625 -26.203125l-14.59375 0l-0.46875 -3.125l18.46875 0l1.25 1.6875l-15.6875 28.796875l-3.609375 -1.15625z" fill-rule="nonzero"></path><path fill="#cccccc" d="m59.1168 236.28871l0 0c0 -114.16204 92.54662 -206.70866 206.70868 -206.70866l0 0c54.82254 0 107.39969 21.77817 146.1651 60.543564c38.76538 38.76539 60.54355 91.34255 60.54355 146.1651l0 0c0 114.16203 -92.54663 206.70866 -206.70865 206.70866l0 0c-114.16205 0 -206.70868 -92.54663 -206.70868 -206.70866z" fill-rule="nonzero"></path><path fill="#b7b7b7" d="m135.63649 299.15485l0 0c0 -71.90138 58.287582 -130.18896 130.18898 -130.18896l0 0c34.52826 0 67.642334 13.716293 92.057495 38.13147c24.415161 24.415161 38.13147 57.529236 38.13147 92.057495l0 0c0 71.9014 -58.287598 130.189 -130.18896 130.189l0 0c-71.9014 0 -130.18898 -58.287598 -130.18898 -130.189z" fill-rule="nonzero"></path><path fill="#999999" d="m191.36876 342.50656l0 0c0 -41.121307 33.335403 -74.456696 74.45671 -74.456696l0 0c19.747131 0 38.685486 7.844513 52.648834 21.807861c13.963318 13.963348 21.807861 32.901703 21.807861 52.648834l0 0c0 41.121307 -33.33542 74.456696 -74.456696 74.456696l0 0c-41.121307 0 -74.45671 -33.33539 -74.45671 -74.456696z" fill-rule="nonzero"></path><path fill="#000000" d="m231.83939 359.58655l0 -32.640625l17.859375 0q0.09375 0.71875 0.1875 1.4375q0.09375 0.71875 0.25 1.4375l-14.5 0l0 11.671875l9.40625 0q0.09375 0.71875 0.1875 1.4375q0.09375 0.71875 0.25 1.4375l-9.84375 0l0 12.25l15.453125 0l0.4375 2.96875l-19.6875 0zm24.917786 -4.5625q1.296875 0.625 3.46875 1.296875q2.1875 0.671875 4.546875 0.671875q3.78125 0 5.796875 -1.453125q2.03125 -1.46875 2.03125 -3.828125q0 -5.1875 -8.640625 -7.53125q-8.64061 -2.359375 -8.64061 -9.75q0 -3.453125 2.7812347 -5.84375q2.78125 -2.40625 7.625 -2.40625q2.453125 0 4.625 0.625q2.1875 0.625 3.734375 1.390625q-0.296875 0.765625 -0.640625 1.484375q-0.328125 0.71875 -0.65625 1.484375q-1.25 -0.625 -2.84375 -1.140625q-1.578125 -0.53125 -3.96875 -0.53125q-3.03125 0 -5.0 1.25q-1.96875 1.25 -1.96875 3.59375q0 5.328125 8.65625 7.734375q8.671875 2.390625 8.671875 9.546875q0 3.75 -3.0 6.171875q-3.0 2.421875 -8.515625 2.421875q-2.0625 0 -5.0625 -0.71875q-3.0 -0.71875 -3.9218597 -1.484375q0.20310974 -0.71875 0.43748474 -1.46875q0.234375 -0.75 0.484375 -1.515625zm26.058441 -6.1875l0.765625 -16.421875l16.375 0l-0.484375 3.125l-12.4375 0l-0.421875 9.40625q1.15625 -0.71875 2.4375 -1.125q1.296875 -0.40625 2.546875 -0.40625q5.328125 0 7.71875 2.90625q2.40625 2.890625 2.46875 6.828125q0 4.1875 -2.9375 7.125q-2.921875 2.953125 -8.34375 2.953125q-2.640625 0 -5.140625 -0.84375q-2.5 -0.828125 -4.265625 -1.734375l1.953125 -2.6875q1.78125 1.0 3.453125 1.578125q1.6875 0.578125 4.1875 0.578125q3.265625 0 5.28125 -1.875q2.015625 -1.875 2.015625 -5.09375q0 -3.15625 -1.734375 -4.890625q-1.71875 -1.734375 -4.453125 -1.734375q-1.875 0 -3.296875 0.828125q-1.40625 0.8125 -2.03125 1.484375l-3.65625 0z" fill-rule="nonzero"></path><path fill="#000000" fill-opacity="0.0" d="m176.48688 185.68678l178.67715 0l0 74.45668l-178.67715 0z" fill-rule="nonzero"></path><path fill="#000000" d="m231.67139 240.76678l0 -32.640625l17.859375 0q0.09375 0.71875 0.1875 1.4375q0.09375 0.71875 0.25 1.4375l-14.5 0l0 11.671875l9.40625 0q0.09375 0.71875 0.1875 1.4375q0.09375 0.71875 0.25 1.4375l-9.84375 0l0 12.25l15.453125 0l0.4375 2.96875l-19.6875 0zm24.917786 -4.5625q1.296875 0.625 3.46875 1.296875q2.1875 0.671875 4.546875 0.671875q3.78125 0 5.796875 -1.453125q2.03125 -1.46875 2.03125 -3.828125q0 -5.1875 -8.640625 -7.53125q-8.64061 -2.359375 -8.64061 -9.75q0 -3.453125 2.7812347 -5.84375q2.78125 -2.40625 7.625 -2.40625q2.453125 0 4.625 0.625q2.1875 0.625 3.734375 1.390625q-0.296875 0.765625 -0.640625 1.484375q-0.328125 0.71875 -0.65625 1.484375q-1.25 -0.625 -2.84375 -1.140625q-1.578125 -0.53125 -3.96875 -0.53125q-3.03125 0 -5.0 1.25q-1.96875 1.25 -1.96875 3.59375q0 5.328125 8.65625 7.734375q8.671875 2.390625 8.671875 9.546875q0 3.75 -3.0 6.171875q-3.0 2.421875 -8.515625 2.421875q-2.0625 0 -5.0625 -0.71875q-3.0 -0.71875 -3.9218597 -1.484375q0.203125 -0.71875 0.43748474 -1.46875q0.234375 -0.75 0.484375 -1.515625zm45.83969 -4.703125q0 3.84375 -2.6875 6.875q-2.6875 3.015625 -7.015625 3.015625q-4.984375 0 -8.15625 -3.359375q-3.171875 -3.359375 -3.171875 -9.796875q0 -5.28125 3.890625 -10.96875q3.890625 -5.6875 10.078125 -6.9375l1.59375 2.359375q-4.28125 1.0 -7.359375 4.484375q-3.0625 3.484375 -3.96875 7.65625q1.296875 -1.15625 3.140625 -2.015625q1.84375 -0.859375 3.859375 -0.859375q4.515625 0 7.15625 2.90625q2.640625 2.890625 2.640625 6.640625zm-3.609375 0.234375q0 -2.625 -1.6875 -4.734375q-1.671875 -2.125 -4.546875 -2.125q-2.59375 0 -4.546875 1.328125q-1.9375 1.3125 -2.84375 2.953125q0.140625 4.078125 1.96875 6.578125q1.828125 2.484375 5.421875 2.484375q2.828125 0 4.53125 -1.984375q1.703125 -2.0 1.703125 -4.5z" fill-rule="nonzero"></path><path fill="#000000" fill-opacity="0.0" d="m117.79396 78.6273l296.063 0l0 74.45669l-296.063 0z" fill-rule="nonzero"></path><path fill="#000000" d="m181.88087 104.09792l-10.515625 0l0 29.609367l-3.84375 0l0 -29.609367l-10.21875 0l0 -3.03125l24.140625 0l0.4375 3.03125zm8.878677 33.406242l1.390625 -3.9375l-8.984375 -22.562492l3.75 -0.578125l7.046875 17.999992l6.671875 -17.999992l3.796875 0l-7.109375 19.062492l-3.15625 9.015625q-0.765625 2.21875 -2.765625 3.71875q-1.984375 1.5156403 -4.4375 2.0468903l-1.15625 -2.7343903q1.734375 -0.765625 3.03125 -1.59375q1.296875 -0.8125 1.921875 -2.4375zm22.114792 -8.84375q1.34375 1.203125 2.859375 1.828125q1.515625 0.625 2.859375 0.625q3.75 0 5.328125 -2.640625q1.578125 -2.6406174 1.578125 -6.3749924q0 -3.890625 -1.53125 -6.5q-1.53125 -2.625 -5.375 -2.625q-1.34375 0 -2.859375 0.65625q-1.515625 0.640625 -2.859375 1.84375l0 13.187492zm-3.78125 15.562515l0 -33.796883l2.25 0l0.859375 2.0625q1.5 -1.15625 3.390625 -1.9375q1.890625 -0.796875 3.578125 -0.796875q5.140625 0 7.625 3.515625q2.5 3.5 2.5 8.78125q0 5.3125 -2.515625 8.781242q-2.515625 3.453125 -7.609375 3.453125q-1.53125 0 -3.21875 -0.59375q-1.671875 -0.609375 -3.078125 -1.671875l0 11.67189l-3.78125 0.53125zm45.839783 -21.562508l-16.906235 0q0.15625 3.703125 1.96875 6.1249924q1.828125 2.421875 5.765625 2.421875q2.3593597 0 3.8124847 -0.5q1.46875 -0.5 2.8125 -1.125l1.203125 2.78125q-1.484375 1.0 -3.890625 1.453125q-2.40625 0.46875 -3.84375 0.46875q-5.8124847 0 -8.781235 -3.421875q-2.96875 -3.4374924 -2.96875 -8.874992q0.046875 -5.265625 2.84375 -8.71875q2.8125 -3.46875 8.0 -3.46875q5.4218597 0 7.7031097 3.828125q2.28125 3.8125 2.28125 9.03125zm-3.75 -2.578125q-0.375 -3.125 -1.875 -5.09375q-1.484375 -1.96875 -4.4999847 -1.96875q-3.03125 0 -4.6875 1.96875q-1.65625 1.96875 -1.984375 5.09375l13.04686 0zm9.75032 9.062492q1.296875 0.625 3.46875 1.296875q2.1875 0.671875 4.546875 0.671875q3.78125 0 5.796875 -1.453125q2.03125 -1.46875 2.03125 -3.8281174q0 -5.1875 -8.640625 -7.53125q-8.640625 -2.359375 -8.640625 -9.75q0 -3.453125 2.78125 -5.84375q2.78125 -2.40625 7.625 -2.40625q2.453125 0 4.625 0.625q2.1875 0.625 3.734375 1.390625q-0.296875 0.765625 -0.640625 1.484375q-0.328125 0.71875 -0.65625 1.484375q-1.25 -0.625 -2.84375 -1.140625q-1.578125 -0.53125 -3.96875 -0.53125q-3.03125 0 -5.0 1.25q-1.96875 1.25 -1.96875 3.59375q0 5.328125 8.65625 7.734375q8.671875 2.390625 8.671875 9.546875q0 3.7499924 -3.0 6.1718674q-3.0 2.421875 -8.515625 2.421875q-2.0625 0 -5.0625 -0.71875q-3.0 -0.71875 -3.921875 -1.484375q0.203125 -0.71875 0.4375 -1.46875q0.234375 -0.75 0.484375 -1.515625zm35.18344 -16.124992q-3.5625 0 -5.25 2.578125q-1.671875 2.5625 -1.71875 6.34375q0 3.9375 1.578125 6.5624924q1.59375 2.609375 5.203125 2.609375q2.34375 0 3.546875 -0.46875q1.203125 -0.484375 2.546875 -1.15625l1.140625 2.78125q-1.484375 0.953125 -3.59375 1.5q-2.109375 0.5625 -3.59375 0.5625q-5.28125 0 -8.0 -3.453125q-2.703125 -3.4531174 -2.703125 -8.890617q0.046875 -5.328125 2.84375 -8.75q2.8125 -3.4375 8.09375 -3.4375q1.390625 0 3.515625 0.5625q2.140625 0.546875 3.640625 1.546875l-1.15625 2.734375q-1.34375 -0.625 -2.578125 -1.125q-1.21875 -0.5 -3.515625 -0.5zm13.058899 20.687492l0 -23.281242l2.296875 0l1.15625 3.265625q1.296875 -1.109375 3.328125 -2.1875q2.046875 -1.078125 3.921875 -1.078125q0.1875 0.765625 0.421875 1.515625q0.25 0.734375 0.484375 1.515625q-2.0625 0 -4.171875 1.125q-2.109375 1.125 -3.65625 2.65625l0 16.468742l-3.78125 0zm17.793152 -27.890617q-1.09375 0 -1.8125 -0.734375q-0.71875 -0.75 -0.71875 -1.859375q-0.046875 -1.046875 0.6875 -1.796875q0.75 -0.75 1.84375 -0.75q1.0625 0 1.84375 0.75q0.796875 0.75 0.796875 1.796875q0 1.109375 -0.796875 1.859375q-0.78125 0.734375 -1.84375 0.734375zm-1.859375 27.890617l0 -23.281242l3.828125 0l0 23.281242l-3.828125 0zm15.205292 -5.046875q1.34375 1.203125 2.859375 1.828125q1.515625 0.625 2.859375 0.625q3.75 0 5.328125 -2.640625q1.578125 -2.6406174 1.578125 -6.3749924q0 -3.890625 -1.53125 -6.5q-1.53125 -2.625 -5.375 -2.625q-1.34375 0 -2.859375 0.65625q-1.515625 0.640625 -2.859375 1.84375l0 13.187492zm-3.78125 15.562515l0 -33.796883l2.25 0l0.859375 2.0625q1.5 -1.15625 3.390625 -1.9375q1.890625 -0.796875 3.578125 -0.796875q5.140625 0 7.625 3.515625q2.5 3.5 2.5 8.78125q0 5.3125 -2.515625 8.781242q-2.515625 3.453125 -7.609375 3.453125q-1.53125 0 -3.21875 -0.59375q-1.671875 -0.609375 -3.078125 -1.671875l0 11.67189l-3.78125 0.53125zm36.949158 -10.60939q-0.515625 0.234375 -1.5 0.515625q-0.984375 0.296875 -2.046875 0.296875q-2.96875 0 -4.78125 -1.71875q-1.796875 -1.734375 -1.796875 -5.0468674l0 -13.96875l-3.3125 0l-0.046875 -2.875l3.359375 0l0 -5.90625l3.84375 -1.109375l0 7.015625l4.21875 0l1.25 2.875l-5.46875 0l0 13.4375q0 1.7812424 0.765625 2.9062424q0.765625 1.125 2.546875 1.125q0.53125 0 1.15625 -0.15625q0.625 -0.171875 0.953125 -0.328125l0.859375 2.9375z" fill-rule="nonzero"></path></g></svg>

